# AST/ASF file generated using VICON BodyLanguage
# -----------------------------------------------
:version 1.10
:name VICON
:units
  mass 1.0
  length 0.45
  angle deg
:documentation
   .ast/.asf automatically generated from VICON data using
   VICON BodyBuilder and BodyLanguage model FoxedUp or BRILLIANT.MOD
:root
   order TX TY TZ RX RY RZ
   axis XYZ
   position 0 0 0  
   orientation 0 0 0 
:bonedata
  begin
     id 1 
     name lhipjoint
     direction 0.611804 -0.747784 0.257906 
     length 2.29243 
     axis 0 0 0  XYZ
  end
  begin
     id 2 
     name lfemur
     direction 0.34202 -0.939693 0  
     length 7.31159  
     axis 0 0 20  XYZ
    dof rx ry rz
    limits (-160.0 20.0)
           (-70.0 70.0)
           (-60.0 70.0)
  end
  begin
     id 3 
     name ltibia
     direction 0.34202 -0.939693 0   
     length 7.33391   
     axis 0 0 20   XYZ
    dof rx
    limits (-10.0 170.0)
  end
  begin
     id 4 
     name lfoot
     direction 0.122263 -0.335914 0.933924   
     length 1.76083   
     axis -90 7.62852e-016 20   XYZ
    dof rx rz
    limits (-45.0 90.0)
           (-70.0 20.0)
  end
  begin
     id 5 
     name ltoes
     direction 1.53533e-011 -4.2177e-011 1   
     length 0.879206   
     axis -90 7.62852e-016 20   XYZ
    dof rx
    limits (-90.0 20.0)
  end
  begin
     id 6 
     name rhipjoint
     direction -0.646469 -0.721248 0.248754   
     length 2.37677  
     axis 0 0 0  XYZ 
  end
  begin
     id 7 
     name rfemur
     direction -0.34202 -0.939693 0   
     length 7.18623   
     axis 0 0 -20   XYZ
    dof rx ry rz
    limits (-160.0 20.0)
           (-70.0 70.0)
           (-70.0 60.0)
  end
  begin
     id 8 
     name rtibia
     direction -0.34202 -0.939693 0   
     length 7.36567   
     axis 0 0 -20   XYZ
    dof rx
    limits (-10.0 170.0)
 end
 begin
     id 9 
     name rfoot
     direction -0.126681 -0.348054 0.928876   
     length 1.71902  
     axis -90 -7.62852e-016 -20   XYZ
    dof rx rz
    limits (-45.0 90.0)
           (-20.0 70.0)
  end
  begin
     id 10 
     name rtoes
     direction -1.53551e-011 -4.21898e-011 1   
     length 0.857792   
     axis -90 -7.62852e-016 -20   XYZ
    dof rx
    limits (-90.0 20.0)
  end
  begin
     id 11 
     name lowerback
     direction 0.0106509 0.999778 0.0181844   
     length 2.07668   
     axis 0 0 0   XYZ
    dof rx ry rz
    limits (-20.0 45.0)
           (-30.0 30.0)
           (-30.0 30.0)
  end
  begin
     id 12 
     name upperback
     direction -0.00456018 0.999989 -0.000590935   
     length 2.08011   
     axis 0 0 0   XYZ
    dof rx ry rz
    limits (-20.0 45.0)
           (-30.0 30.0)
           (-30.0 30.0)
  end
  begin
     id 13 
     name thorax
     direction -0.00910382 0.999916 -0.00923765   
     length 2.07397   
     axis 0 0 0   XYZ
    dof rx ry rz
    limits (-20.0 45.0)
           (-30.0 30.0)
           (-30.0 30.0)
  end
  begin
     id 14 
     name lowerneck
     direction 0.00171967 0.99778 0.0665733   
     length 1.67556   
     axis 0 0 0   XYZ
    dof rx ry rz
    limits (-20.0 45.0)
           (-30.0 30.0)
           (-30.0 30.0)
  end
  begin
     id 15 
     name upperneck
     direction -0.0143166 0.991302 -0.130828   
     length 1.68462   
     axis 0 0 0   XYZ
    dof rx ry rz
    limits (-20.0 45.0)
           (-30.0 30.0)
           (-30.0 30.0)
  end
  begin
     id 16
     name head
     direction -0.00606378 0.998665 -0.0512995  
     length 1.69269  
     axis 0 0 0   XYZ
    dof rx ry rz
    limits (-20.0 45.0)
           (-30.0 30.0)
           (-30.0 30.0)
  end
  begin
     id 17 
     name lclavicle
     direction 0.9638 0.179341 0.197297  
     length 4.12888  
     axis 0 0 0   XYZ
    dof ry rz
    limits (-20.0 10.0)
           (0.0 20.0)
  end
  begin
     id 18 
     name lhumerus
     direction 1 -4.48972e-011 -2.47351e-027   
     length 5.01834   
     axis -180 -30 -90   XYZ
    dof rx ry rz
    limits (-60.0 90.0)
           (-90.0 90.0)
           (-90.0 90.0)
  end
  begin
     id 19
     name lradius
     direction 1 -4.48965e-011 1.51591e-026   
     length 3.4869   
     axis -180 -30 -90   XYZ
    dof rx
    limits (-10.0 170.0)
  end
  begin
     id 20
     name lwrist
     direction 1 -4.48957e-011 2.70032e-026   
     length 1.74345   
     axis -1.81515e-014 90 90   XYZ
    dof ry
    limits (-180.0 0.0)
 end
  begin
     id 21 
     name lhand
     direction 1 -4.48951e-011 5.40064e-026   
     length 0.76799   
     axis -3.44607e-014 90 90   XYZ
    dof rx rz
    limits (-90.0 90.0)
           (-45.0 45.0)
  end
  begin
     id 22 
     name lfingers
     direction 1 -4.48971e-011 1.08013e-025   
     length 0.619174   
     axis -6.89214e-014 90 90   XYZ
    dof rx
    limits (0.0 90.0)
  end
  begin
     id 23
     name lthumb
     direction 0.707107 -6.34931e-011 0.707107   
     length 0.889013   
     axis -90 45 2.85299e-015   XYZ
    dof rx rz
    limits (-45.0 45.0)
           (-45.0 45.0)
  end
  begin
     id 24 
     name rclavicle
     direction -0.961409 0.252588 0.109054   
     length 4.04305  
     axis 0 0 0   XYZ 
    dof ry rz
    limits (-10.0 20.0)
           (-20.0 0.0)
  end
  begin
     id 25 
     name rhumerus
     direction -1 -4.4897e-011 1.33872e-017  
     length 4.70164   
     axis -180 30 90   XYZ
    dof rx ry rz
    limits (-90.0 60.0)
           (-90.0 90.0)
           (-90.0 90.0)
  end
  begin
     id 26 
     name rradius
     direction -1 -4.48954e-011 1.83844e-026   
     length 3.49911   
     axis -180 30 90   XYZ
    dof rx
    limits (-10.0 170.0)
  end
  begin
     id 27 
     name rwrist
     direction -1 -4.49008e-011 2.70032e-026   
     length 1.74955   
     axis -1.81515e-014 -90 -90   XYZ
    dof ry
    limits (-180.0 0.0)
  end
  begin
     id 28
     name rhand
     direction -1 -4.48916e-011 5.40064e-026   
     length 0.739335   
     axis -3.44607e-014 -90 -90   XYZ
    dof rx rz
    limits (-90.0 90.0)
           (-45.0 45.0)
  end
  begin
     id 29
     name rfingers
     direction -1 -4.48987e-011 1.08013e-025   
     length 0.596071   
     axis -6.89214e-014 -90 -90   XYZ
    dof rx
    limits (0.0 90.0)
  end
  begin
     id 30
     name rthumb
     direction -0.707107 -6.34935e-011 0.707107   
     length 0.855843   
     axis -90 -45 -2.85299e-015   XYZ
    dof rx rz
    limits (-45.0 45.0)
           (-45.0 45.0)
  end
:hierarchy
  begin
    root lhipjoint rhipjoint lowerback
    lhipjoint lfemur
    lfemur ltibia
    ltibia lfoot
    lfoot ltoes
    rhipjoint rfemur
    rfemur rtibia
    rtibia rfoot
    rfoot rtoes
    lowerback upperback
    upperback thorax
    thorax lowerneck lclavicle rclavicle
    lowerneck upperneck
    upperneck head
    lclavicle lhumerus
    lhumerus lradius
    lradius lwrist
    lwrist lhand lthumb
    lhand lfingers
    rclavicle rhumerus
    rhumerus rradius
    rradius rwrist
    rwrist rhand rthumb
    rhand rfingers
  end

#!OML:ASF I:\salsa\salsa 7_09\Patient 1\Session 1\dancermale.ASF
:FULLY-SPECIFIED
:DEGREES
488
root 3.14782 15.9414 -5.27678 371.195 0.467087 365.862
lowerback 9.77178 9.60072 9.26042
upperback 2.53359 13.5884 -1.37265
thorax -0.232039 6.8801 -7.519
lowerneck -7.06397 -16.5773 -9.91564
upperneck 7.41526 -21.9385 7.48758
head 5.2483 -10.703 2.00835
rclavicle 5.88403e-014 -1.43125e-014
rhumerus -5.27714 36.1841 -54.635
rradius 62.3764
rwrist -245.872
rhand -38.3618 4.29467
rfingers 7.12502
rthumb -11.3882 -25.3761
lclavicle 5.88403e-014 -1.43125e-014
lhumerus -11.4303 1.50399 71.0036
lradius 125.167
lwrist 47.2782
lhand -31.5174 49.5946
lfingers 7.12502
lthumb -4.78277 -280.479
rfemur -37.2369 -14.4697 -4.28396
rtibia 48.24
rfoot -13.0198 -22.0968
rtoes 5.81037
lfemur -41.3811 7.25887 -9.77888
ltibia 36.4492
lfoot -11.4349 0.832893
ltoes -33.6896
489
root 3.14537 15.9388 -5.31133 371.653 -0.020297 365.965
lowerback 10.0843 9.54697 9.31195
upperback 2.63885 13.5416 -1.43467
thorax -0.270518 6.85959 -7.6576
lowerneck -7.35003 -16.419 -9.64711
upperneck 6.89807 -21.685 7.41159
head 5.0739 -10.5787 1.98771
rclavicle -3.81667e-014 2.70347e-014
rhumerus -5.12847 34.7315 -55.327
rradius 61.1996
rwrist -244.925
rhand -38.628 4.49373
rfingers 7.12502
rthumb -11.6449 -25.1627
lclavicle -3.81667e-014 2.70347e-014
lhumerus -11.6888 0.913098 72.0914
lradius 124.235
lwrist 46.9928
lhand -31.8899 49.6845
lfingers 7.12502
lthumb -5.14244 -280.398
rfemur -38.1844 -14.4518 -4.25512
rtibia 48.3526
rfoot -12.7163 -22.0353
rtoes 3.97796
lfemur -41.8314 7.41695 -9.85913
ltibia 36.3377
lfoot -11.1358 1.13806
ltoes -33.6269
490
root 3.14088 15.9352 -5.34531 372.162 -0.543881 366.044
lowerback 10.3431 9.51387 9.25081
upperback 2.69711 13.5087 -1.437
thorax -0.368595 6.83817 -7.67437
lowerneck -7.66963 -16.2462 -9.3107
upperneck 6.44454 -21.4096 7.20709
head 4.90239 -10.447 1.92054
rclavicle -6.36111e-014 -1.90833e-014
rhumerus -5.13449 33.6261 -55.7671
rradius 60.3284
rwrist -244.445
rhand -38.3969 4.98368
rfingers 7.12502
rthumb -11.422 -24.6852
lclavicle -6.36111e-014 -1.90833e-014
lhumerus -12.0151 0.350934 73.2221
lradius 123.174
lwrist 46.5917
lhand -32.0687 49.654
lfingers 7.12502
lthumb -5.31506 -280.433
rfemur -39.2147 -14.3971 -4.18596
rtibia 48.5
rfoot -12.5775 -21.9765
rtoes 2.23894
lfemur -42.3209 7.69464 -9.93919
ltibia 36.2137
lfoot -10.7818 1.40413
ltoes -33.643
491
root 3.13564 15.9285 -5.37868 372.607 -1.12279 366.224
lowerback 10.6448 9.50504 9.08754
upperback 2.75806 13.5 -1.47589
thorax -0.49674 6.82734 -7.68562
lowerneck -8.00124 -16.1017 -8.97038
upperneck 6.07622 -21.172 6.91651
head 4.75359 -10.3365 1.8195
rclavicle -2.94201e-014 -1.90833e-014
rhumerus -5.34348 32.7031 -55.9962
rradius 59.8414
rwrist -244.328
rhand -38.2547 5.8591
rfingers 7.12502
rthumb -11.2849 -23.8173
lclavicle -2.94201e-014 -1.90833e-014
lhumerus -12.3434 -0.334239 74.3524
lradius 122.083
lwrist 46.3126
lhand -32.4724 49.2416
lfingers 7.12502
lthumb -5.7048 -280.855
rfemur -40.2031 -14.242 -4.2756
rtibia 48.6677
rfoot -12.3704 -21.8864
rtoes 1.61051
lfemur -42.7603 8.07065 -10.1659
ltibia 36.121
lfoot -10.4264 1.60116
ltoes -33.9399
492
root 3.13109 15.9219 -5.41274 372.953 -1.58526 366.45
lowerback 11.0226 9.45036 9.00544
upperback 2.82933 13.4436 -1.56824
thorax -0.631521 6.7947 -7.80509
lowerneck -8.40056 -15.9785 -8.65681
upperneck 5.86698 -20.9796 6.74078
head 4.6856 -10.2385 1.7346
rclavicle 6.52014e-014 -2.70347e-014
rhumerus -5.69997 31.7953 -56.2456
rradius 59.463
rwrist -244.435
rhand -39.0261 7.4341
rfingers 7.12502
rthumb -12.0288 -22.2002
lclavicle 6.52014e-014 -2.70347e-014
lhumerus -12.613 -1.23479 75.4689
lradius 121.036
lwrist 46.3027
lhand -33.0432 48.783
lfingers 7.12502
lthumb -6.25594 -281.329
rfemur -41.0306 -14.0803 -4.4949
rtibia 48.8405
rfoot -12.1883 -21.7776
rtoes 2.07659
lfemur -43.1001 8.22959 -10.4085
ltibia 35.9688
lfoot -10.0558 1.85314
ltoes -34.4227
493
root 3.12562 15.9158 -5.44757 373.284 -2.02223 366.629
lowerback 11.3715 9.3337 8.96416
upperback 2.89556 13.307 -1.63548
thorax -0.768404 6.72113 -7.91197
lowerneck -8.86783 -15.7842 -8.40895
upperneck 5.80909 -20.6974 6.63898
head 4.68533 -10.0899 1.67499
rclavicle 4.77083e-014 -3.49861e-014
rhumerus -6.03835 31.2167 -56.4363
rradius 59.128
rwrist -244.304
rhand -38.6658 6.92516
rfingers 7.12502
rthumb -11.6814 -22.7292
lclavicle 4.77083e-014 -3.49861e-014
lhumerus -12.8744 -2.05761 76.6297
lradius 119.926
lwrist 46.0319
lhand -33.3471 48.3386
lfingers 7.12502
lthumb -6.54929 -281.783
rfemur -41.8009 -13.8446 -4.71106
rtibia 48.9308
rfoot -11.9775 -21.6378
rtoes 2.23285
lfemur -43.4115 8.4007 -10.594
ltibia 35.7894
lfoot -9.66602 2.07821
ltoes -34.914
494
root 3.11767 15.9088 -5.48187 373.674 -2.53812 366.671
lowerback 11.573 9.17853 8.96177
upperback 2.94258 13.1132 -1.63051
thorax -0.866614 6.61886 -7.93484
lowerneck -9.25015 -15.5035 -8.29936
upperneck 5.7647 -20.2831 6.4583
head 4.67293 -9.8857 1.63058
rclavicle -1.82882e-014 -2.22639e-014
rhumerus -6.28679 31.0351 -56.4868
rradius 58.8589
rwrist -244.279
rhand -38.3266 5.90559
rfingers 7.12502
rthumb -11.3543 -23.767
lclavicle -1.82882e-014 -2.22639e-014
lhumerus -13.177 -2.73407 77.8455
lradius 118.799
lwrist 45.3191
lhand -33.517 47.8601
lfingers 7.12502
lthumb -6.71335 -282.266
rfemur -42.6973 -13.3439 -4.82441
rtibia 49.0926
rfoot -11.9716 -21.3966
rtoes 2.64618
lfemur -43.8011 8.88915 -10.7056
ltibia 35.6961
lfoot -9.29225 2.21686
ltoes -35.621
495
root 3.10977 15.903 -5.51765 374.055 -3.01476 366.662
lowerback 11.7653 9.00596 8.99465
upperback 2.96545 12.9011 -1.62456
thorax -0.981466 6.50573 -7.97394
lowerneck -9.66374 -15.2256 -8.11982
upperneck 5.77997 -19.8724 6.16709
head 4.66682 -9.68633 1.54165
rclavicle 1.10524e-013 -1.43125e-014
rhumerus -6.62998 30.7671 -56.5093
rradius 58.8016
rwrist -245.426
rhand -37.8862 6.68153
rfingers 7.12502
rthumb -10.9295 -23.014
lclavicle 1.10524e-013 -1.43125e-014
lhumerus -13.4351 -3.55481 79.089
lradius 117.789
lwrist 44.6025
lhand -34.0265 47.2584
lfingers 7.12502
lthumb -7.20515 -282.884
rfemur -43.532 -12.6855 -4.97658
rtibia 49.2687
rfoot -12.243 -21.1379
rtoes 3.30058
lfemur -44.1936 9.36016 -10.7664
ltibia 35.587
lfoot -8.86408 2.39635
ltoes -36.3052
496
root 3.10216 15.898 -5.55562 374.37 -3.4251 366.692
lowerback 12.0608 8.83529 9.01263
upperback 2.93331 12.7009 -1.66066
thorax -1.20178 6.39087 -8.07458
lowerneck -10.1779 -14.9487 -7.80116
upperneck 6.04209 -19.4793 5.78721
head 4.73428 -9.49168 1.39057
rclavicle -8.98507e-014 -1.59028e-015
rhumerus -7.20557 29.7315 -56.7204
rradius 58.8196
rwrist -245.458
rhand -36.2743 6.3448
rfingers 7.12502
rthumb -9.37445 -23.4267
lclavicle -8.98507e-014 -1.59028e-015
lhumerus -13.6064 -4.56646 80.3739
lradius 116.882
lwrist 43.9891
lhand -34.392 46.6936
lfingers 7.12502
lthumb -7.55798 -283.461
rfemur -44.1884 -12.2135 -5.13225
rtibia 49.2764
rfoot -12.2313 -20.9686
rtoes 2.11685
lfemur -44.5504 9.73408 -10.8441
ltibia 35.4736
lfoot -8.4314 2.51961
ltoes -36.563
497
root 3.09496 15.8917 -5.59248 374.637 -3.89591 366.758
lowerback 12.3583 8.67865 8.99824
upperback 2.86465 12.5171 -1.72
thorax -1.46094 6.28061 -8.18639
lowerneck -10.5685 -14.6034 -7.45375
upperneck 6.32735 -19.0024 5.33146
head 4.77724 -9.26305 1.23128
rclavicle 1.98785e-014 -4.77083e-015
rhumerus -7.91028 28.63 -57.1678
rradius 58.7919
rwrist -245.058
rhand -35.5669 6.45371
rfingers 7.12502
rthumb -8.69185 -23.3473
lclavicle 1.98785e-014 -4.77083e-015
lhumerus -13.6628 -5.6671 81.6858
lradius 116.041
lwrist 43.3425
lhand -34.3507 46.1812
lfingers 7.12502
lthumb -7.5181 -283.972
rfemur -44.8441 -11.9549 -5.19955
rtibia 49.2463
rfoot -11.8476 -20.8442
rtoes 0.351608
lfemur -44.8707 10.1166 -10.9527
ltibia 35.4301
lfoot -8.0691 2.68027
ltoes -36.6311
498
root 3.08879 15.886 -5.62919 374.858 -4.47027 366.768
lowerback 12.6312 8.51842 9.01526
upperback 2.81851 12.3291 -1.78063
thorax -1.67698 6.17167 -8.30646
lowerneck -10.8331 -14.1562 -7.11143
upperneck 6.46186 -18.3961 4.92681
head 4.75587 -8.97416 1.11463
rclavicle -1.10524e-013 3.97569e-014
rhumerus -8.48761 27.7925 -57.5469
rradius 58.7237
rwrist -245.03
rhand -35.4758 6.81738
rfingers 7.12502
rthumb -8.60397 -22.9873
lclavicle -1.10524e-013 3.97569e-014
lhumerus -13.5647 -6.7767 82.9691
lradius 115.243
lwrist 42.5426
lhand -34.4903 45.4482
lfingers 7.12502
lthumb -7.65278 -284.71
rfemur -45.5346 -11.7004 -5.12853
rtibia 49.1934
rfoot -11.3512 -20.7783
rtoes 0.371752
lfemur -45.0926 10.4062 -10.935
ltibia 35.407
lfoot -7.73144 3.09984
ltoes -36.8291
499
root 3.0835 15.8829 -5.66765 375 -5.1224 366.7
lowerback 12.9954 8.3589 9.07614
upperback 2.75274 12.157 -1.81959
thorax -1.95633 6.06485 -8.44575
lowerneck -11.1554 -13.6619 -6.75777
upperneck 6.76392 -17.7181 4.3826
head 4.7825 -8.65507 0.951169
rclavicle 2.78299e-014 2.54444e-014
rhumerus -9.09981 26.951 -57.7758
rradius 58.5026
rwrist -245.931
rhand -35.3842 7.41509
rfingers 7.12502
rthumb -8.51555 -22.3932
lclavicle 2.78299e-014 2.54444e-014
lhumerus -13.4223 -7.83037 84.2303
lradius 114.447
lwrist 41.7421
lhand -34.8096 44.7209
lfingers 7.12502
lthumb -7.96104 -285.449
rfemur -46.1683 -11.2929 -4.96629
rtibia 49.06
rfoot -10.8524 -20.763
rtoes 0.803842
lfemur -45.2 10.5872 -10.7505
ltibia 35.4171
lfoot -7.43705 3.6997
ltoes -36.9414
500
root 3.08029 15.8774 -5.70664 375.162 -5.7918 366.657
lowerback 13.3836 8.22253 9.10458
upperback 2.56364 12.0205 -1.85553
thorax -2.38161 5.96085 -8.58493
lowerneck -11.3574 -13.1783 -6.43682
upperneck 7.16135 -17.0387 3.63153
head 4.80973 -8.3507 0.734616
rclavicle -4.77083e-015 2.38542e-014
rhumerus -9.86665 26.0283 -58.1351
rradius 57.7595
rwrist -248.005
rhand -36.4172 7.44634
rfingers 7.12502
rthumb -9.51232 -22.319
lclavicle -4.77083e-015 2.38542e-014
lhumerus -13.3463 -8.87299 85.5182
lradius 113.6
lwrist 41.0492
lhand -34.9725 44.2006
lfingers 7.12502
lthumb -8.11828 -285.975
rfemur -46.8643 -11.0409 -4.8126
rtibia 48.9613
rfoot -10.3827 -20.5665
rtoes 0.158151
lfemur -45.3957 10.6976 -10.5687
ltibia 35.5544
lfoot -7.24919 4.31992
ltoes -36.7106
